<?xml version="1.0" encoding="utf-8"?>
<!-- Generator: Adobe Illustrator 24.0.2, SVG Export Plug-In . SVG Version: 6.00 Build 0)  -->
<svg version="1.1" id="Capa_1" xmlns="http://www.w3.org/2000/svg" xmlns:xlink="http://www.w3.org/1999/xlink" x="0px" y="0px"
	 viewBox="0 0 172 172" style="enable-background:new 0 0 172 172;" xml:space="preserve">
<style type="text/css">
	.st0{fill:none;stroke:#000000;stroke-miterlimit:10;}
	.st1{fill:#E72F73;}
	.st2{fill:#FFFFFF;}
	.st3{fill:none;}
</style>
<rect class="st3" width="172" height="172"/>
<g>
	<path class="st1" d="M0.8,140.7l34-109.4h11.5l-34,109.4H0.8z"/>
	<path class="st2" d="M53.2,124.5h14.1l3.4-33.2h-13l1.5-14.7h13l2.2-21.5c0.6-5.4,2.6-9.9,6.1-13.4c3.5-3.5,8.5-5.3,15-5.3h13.5
		l-1.5,14.1H93l-2.7,26h15.3l-1.2,14.7H88.8l-2.9,28.7c-0.6,5.4-2.6,9.8-6,13.3c-3.4,3.5-8.5,5.2-15.1,5.2h-13L53.2,124.5z"/>
	<path class="st2" d="M145.1,123.6c-4.8,0-9.1-0.8-12.9-2.4c-3.8-1.6-6.9-3.8-9.5-6.8c-2.5-2.9-4.5-6.4-5.8-10.6
		c-1.3-4.2-2-8.8-2-14s0.7-9.8,2-13.9c1.3-4.1,3.2-7.7,5.8-10.6c2.5-2.9,5.7-5.2,9.5-6.8c3.8-1.6,8.1-2.3,12.9-2.3
		c6.5,0,12,1.5,16.4,4.4c4.4,2.9,7.5,7.1,9.4,12.4l-14.7,6.4c-0.6-2.5-1.8-4.5-3.6-6.3c-1.8-1.7-4.3-2.6-7.5-2.6
		c-3.7,0-6.5,1.2-8.4,3.6c-1.9,2.4-2.8,5.7-2.8,9.8v12c0,4.1,0.9,7.3,2.8,9.7c1.9,2.4,4.7,3.6,8.4,3.6c3.3,0,5.9-0.9,7.8-2.6
		c1.9-1.8,3.3-4.1,4.2-6.9l14.1,6.1c-2.1,6.1-5.4,10.6-9.9,13.5C156.9,122.2,151.4,123.6,145.1,123.6z"/>
</g>
</svg>
